<svg width="30" height="30" viewBox="0 0 30 30" fill="none" xmlns="http://www.w3.org/2000/svg">
<path fill-rule="evenodd" clip-rule="evenodd" d="M15 10.5C14.172 10.5 13.5 9.828 13.5 9C13.5 8.172 14.172 7.5 15 7.5C15.828 7.5 16.5 8.172 16.5 9C16.5 9.828 15.828 10.5 15 10.5ZM16.5 21C16.5 21.828 15.828 22.5 15 22.5C14.172 22.5 13.5 21.828 13.5 21V13.5C13.5 12.672 14.172 12 15 12C15.828 12 16.5 12.672 16.5 13.5V21ZM15 0C6.7155 0 0 6.7155 0 15C0 23.2845 6.7155 30 15 30C23.283 30 30 23.2845 30 15C30 6.7155 23.283 0 15 0Z" fill="#1F2937"/>
</svg>
