<svg width="28" height="28" viewBox="0 0 28 28" fill="none" xmlns="http://www.w3.org/2000/svg">
<path d="M4.9496 20.9652L4.22199 21.1471L4.9496 20.9652ZM3.05812 13.3992L3.78573 13.2173L3.78573 13.2173L3.05812 13.3992ZM11.6666 10.5V11.25C11.9432 11.25 12.1974 11.0978 12.3279 10.8539C12.4584 10.61 12.4441 10.3141 12.2907 10.084L11.6666 10.5ZM10.023 8.03454L9.39897 8.45057L9.39897 8.45057L10.023 8.03454ZM14 3.5L14.6512 3.1279C14.5176 2.89421 14.2691 2.75 14 2.75V3.5ZM18.5129 11.3977L17.8617 11.7698L17.8617 11.7698L18.5129 11.3977ZM18.1471 22.513L18.5632 23.137L18.5632 23.137L18.1471 22.513ZM16.3423 23.7162L15.9263 23.0922L15.9263 23.0922L16.3423 23.7162ZM23.3333 8.58333H21V10.0833H23.3333V8.58333ZM17.9166 11.6667V22.1667H19.4166V11.6667H17.9166ZM21 25.25H23.3333V23.75H21V25.25ZM26.4166 22.1667V11.6667H24.9166V22.1667H26.4166ZM23.3333 25.25C25.0362 25.25 26.4166 23.8695 26.4166 22.1667H24.9166C24.9166 23.0411 24.2078 23.75 23.3333 23.75V25.25ZM17.9166 22.1667C17.9166 23.8695 19.2971 25.25 21 25.25V23.75C20.1255 23.75 19.4166 23.0411 19.4166 22.1667H17.9166ZM21 8.58333C19.2971 8.58333 17.9166 9.96379 17.9166 11.6667H19.4166C19.4166 10.7922 20.1255 10.0833 21 10.0833V8.58333ZM23.3333 10.0833C24.2078 10.0833 24.9166 10.7922 24.9166 11.6667H26.4166C26.4166 9.96379 25.0362 8.58333 23.3333 8.58333V10.0833ZM13.7537 23.75H9.47693V25.25H13.7537V23.75ZM5.67721 20.7833L3.78573 13.2173L2.33051 13.5811L4.22199 21.1471L5.67721 20.7833ZM5.32179 11.25H11.6666V9.75H5.32179V11.25ZM12.2907 10.084L10.647 7.61852L9.39897 8.45057L11.0426 10.916L12.2907 10.084ZM12.4498 4.25H14V2.75H12.4498V4.25ZM13.3488 3.8721L17.8617 11.7698L19.1641 11.0256L14.6512 3.1279L13.3488 3.8721ZM17.9166 11.9765V21.5423H19.4166V11.9765H17.9166ZM17.7311 21.889L15.9263 23.0922L16.7583 24.3403L18.5632 23.137L17.7311 21.889ZM17.9166 21.5423C17.9166 21.6816 17.847 21.8117 17.7311 21.889L18.5632 23.137C19.0964 22.7816 19.4166 22.1831 19.4166 21.5423H17.9166ZM3.78573 13.2173C3.5359 12.218 4.29172 11.25 5.32179 11.25V9.75C3.31586 9.75 1.84401 11.6351 2.33051 13.5811L3.78573 13.2173ZM9.47693 23.75C7.6797 23.75 6.1131 22.5268 5.67721 20.7833L4.22199 21.1471C4.82482 23.5584 6.9914 25.25 9.47693 25.25V23.75ZM13.7537 25.25C14.8231 25.25 15.8685 24.9335 16.7583 24.3403L15.9263 23.0922C15.2829 23.5211 14.5269 23.75 13.7537 23.75V25.25ZM10.647 7.61852C9.68713 6.17865 10.7193 4.25 12.4498 4.25V2.75C9.52127 2.75 7.7745 6.01386 9.39897 8.45057L10.647 7.61852ZM17.8617 11.7698C17.8977 11.8327 17.9166 11.904 17.9166 11.9765H19.4166C19.4166 11.6429 19.3296 11.3152 19.1641 11.0256L17.8617 11.7698Z" fill="#1F2937"/>
</svg>
