<svg width="28" height="28" viewBox="0 0 28 28" fill="none" xmlns="http://www.w3.org/2000/svg">
<path d="M14 10.9167C13.5858 10.9167 13.25 11.2525 13.25 11.6667C13.25 12.0809 13.5858 12.4167 14 12.4167V10.9167ZM18.6667 12.4167C19.0809 12.4167 19.4167 12.0809 19.4167 11.6667C19.4167 11.2525 19.0809 10.9167 18.6667 10.9167V12.4167ZM14 15.5833C13.5858 15.5833 13.25 15.9191 13.25 16.3333C13.25 16.7475 13.5858 17.0833 14 17.0833V15.5833ZM18.6667 17.0833C19.0809 17.0833 19.4167 16.7475 19.4167 16.3333C19.4167 15.9191 19.0809 15.5833 18.6667 15.5833V17.0833ZM14 20.25C13.5858 20.25 13.25 20.5858 13.25 21C13.25 21.4142 13.5858 21.75 14 21.75V20.25ZM18.6667 21.75C19.0809 21.75 19.4167 21.4142 19.4167 21C19.4167 20.5858 19.0809 20.25 18.6667 20.25V21.75ZM23.75 9.33334V21H25.25V9.33334H23.75ZM19.8333 24.9167H8.16667V26.4167H19.8333V24.9167ZM4.25 21V9.33334H2.75V21H4.25ZM18.6667 5.41667H19.8333V3.91667H18.6667V5.41667ZM8.16667 5.41667H9.33333V3.91667H8.16667V5.41667ZM8.16667 24.9167C6.00355 24.9167 4.25 23.1631 4.25 21H2.75C2.75 23.9915 5.17512 26.4167 8.16667 26.4167V24.9167ZM23.75 21C23.75 23.1631 21.9964 24.9167 19.8333 24.9167V26.4167C22.8249 26.4167 25.25 23.9915 25.25 21H23.75ZM25.25 9.33334C25.25 6.34179 22.8249 3.91667 19.8333 3.91667V5.41667C21.9964 5.41667 23.75 7.17022 23.75 9.33334H25.25ZM4.25 9.33334C4.25 7.17022 6.00355 5.41667 8.16667 5.41667V3.91667C5.17512 3.91667 2.75 6.34179 2.75 9.33334H4.25ZM11.6667 3.08334H16.3333V1.58334H11.6667V3.08334ZM16.3333 6.25H11.6667V7.75H16.3333V6.25ZM11.6667 6.25C10.7922 6.25 10.0833 5.54112 10.0833 4.66667H8.58333C8.58333 6.36955 9.96379 7.75 11.6667 7.75V6.25ZM17.9167 4.66667C17.9167 5.54112 17.2078 6.25 16.3333 6.25V7.75C18.0362 7.75 19.4167 6.36955 19.4167 4.66667H17.9167ZM16.3333 3.08334C17.2078 3.08334 17.9167 3.79222 17.9167 4.66667H19.4167C19.4167 2.96379 18.0362 1.58334 16.3333 1.58334V3.08334ZM11.6667 1.58334C9.96379 1.58334 8.58333 2.96379 8.58333 4.66667H10.0833C10.0833 3.79222 10.7922 3.08334 11.6667 3.08334V1.58334ZM14 12.4167H18.6667V10.9167H14V12.4167ZM14 17.0833H18.6667V15.5833H14V17.0833ZM14 21.75H18.6667V20.25H14V21.75Z" fill="#1F2937"/>
<path d="M11.0833 11.6667C11.0833 12.311 10.561 12.8333 9.91667 12.8333C9.27233 12.8333 8.75 12.311 8.75 11.6667C8.75 11.0223 9.27233 10.5 9.91667 10.5C10.561 10.5 11.0833 11.0223 11.0833 11.6667Z" fill="#28303F"/>
<path d="M11.0833 16.3333C11.0833 16.9777 10.561 17.5 9.91667 17.5C9.27233 17.5 8.75 16.9777 8.75 16.3333C8.75 15.689 9.27233 15.1667 9.91667 15.1667C10.561 15.1667 11.0833 15.689 11.0833 16.3333Z" fill="#28303F"/>
<path d="M11.0833 21C11.0833 21.6443 10.561 22.1667 9.91667 22.1667C9.27233 22.1667 8.75 21.6443 8.75 21C8.75 20.3557 9.27233 19.8333 9.91667 19.8333C10.561 19.8333 11.0833 20.3557 11.0833 21Z" fill="#28303F"/>
</svg>
