<svg width="390" height="374" viewBox="0 0 390 374" fill="none" xmlns="http://www.w3.org/2000/svg">
<mask id="mask0_437_4742" style="mask-type:alpha" maskUnits="userSpaceOnUse" x="0" y="-11" width="390" height="385">
<path fill-rule="evenodd" clip-rule="evenodd" d="M390 -11H0V291V294.482C27.6845 340.736 104.532 374 195 374C285.468 374 362.316 340.736 390 294.482V291V-11Z" fill="#D9D9D9"/>
</mask>
<g mask="url(#mask0_437_4742)">
<rect width="390" height="374" fill="#FFB7AC"/>
<path d="M390 0L0 374V0H390Z" fill="url(#paint0_linear_437_4742)"/>
</g>
<path d="M83 98L86.1432 107.674H96.3148L88.0858 113.652L91.229 123.326L83 117.348L74.771 123.326L77.9142 113.652L69.6852 107.674H79.8568L83 98Z" fill="#FFD9D9"/>
<path d="M332.5 169L335.755 179.019L346.29 179.019L337.767 185.211L341.023 195.231L332.5 189.039L323.977 195.231L327.233 185.211L318.71 179.019L329.245 179.019L332.5 169Z" fill="#FFD9D9"/>
<path d="M225.5 258L227.857 265.601H235.486L229.314 270.298L231.672 277.899L225.5 273.202L219.328 277.899L221.686 270.298L215.514 265.601H223.143L225.5 258Z" fill="#FFD9D9"/>
<path d="M255.5 69L257.857 76.6008H265.486L259.314 81.2984L261.672 88.8992L255.5 84.2016L249.328 88.8992L251.686 81.2984L245.514 76.6008H253.143L255.5 69Z" fill="#FFD9D9"/>
<path d="M68.5 269L70.8574 276.601H78.4861L72.3143 281.298L74.6717 288.899L68.5 284.202L62.3283 288.899L64.6857 281.298L58.5139 276.601H66.1426L68.5 269Z" fill="#FFD9D9"/>
<path d="M276 265L276.898 267.764H279.804L277.453 269.472L278.351 272.236L276 270.528L273.649 272.236L274.547 269.472L272.196 267.764H275.102L276 265Z" fill="#FFA2A2"/>
<path d="M104 175L104.898 177.764H107.804L105.453 179.472L106.351 182.236L104 180.528L101.649 182.236L102.547 179.472L100.196 177.764H103.102L104 175Z" fill="#FFA2A2"/>
<defs>
<linearGradient id="paint0_linear_437_4742" x1="358" y1="52.6761" x2="186.717" y2="42.3474" gradientUnits="userSpaceOnUse">
<stop stop-color="white" stop-opacity="0.11"/>
<stop offset="1" stop-color="white" stop-opacity="0"/>
</linearGradient>
</defs>
</svg>
