<svg width="28" height="28" viewBox="0 0 28 28" fill="none" xmlns="http://www.w3.org/2000/svg">
<path d="M9.33301 10.9167C8.91879 10.9167 8.58301 11.2525 8.58301 11.6667C8.58301 12.0809 8.91879 12.4167 9.33301 12.4167V10.9167ZM18.6663 12.4167C19.0806 12.4167 19.4163 12.0809 19.4163 11.6667C19.4163 11.2525 19.0806 10.9167 18.6663 10.9167V12.4167ZM9.33301 15.5833C8.91879 15.5833 8.58301 15.9191 8.58301 16.3333C8.58301 16.7475 8.91879 17.0833 9.33301 17.0833V15.5833ZM13.9997 17.0833C14.4139 17.0833 14.7497 16.7475 14.7497 16.3333C14.7497 15.9191 14.4139 15.5833 13.9997 15.5833V17.0833ZM12.833 4.25H15.1663V2.75H12.833V4.25ZM3.08301 19.8333V14H1.58301V19.8333H3.08301ZM15.1663 23.75H6.99967V25.25H15.1663V23.75ZM1.58301 19.8333C1.58301 22.8249 4.00813 25.25 6.99967 25.25V23.75C4.83656 23.75 3.08301 21.9964 3.08301 19.8333H1.58301ZM24.9163 14C24.9163 19.3848 20.5511 23.75 15.1663 23.75V25.25C21.3795 25.25 26.4163 20.2132 26.4163 14H24.9163ZM15.1663 4.25C20.5511 4.25 24.9163 8.61522 24.9163 14H26.4163C26.4163 7.7868 21.3795 2.75 15.1663 2.75V4.25ZM12.833 2.75C6.6198 2.75 1.58301 7.7868 1.58301 14H3.08301C3.08301 8.61522 7.44823 4.25 12.833 4.25V2.75ZM9.33301 12.4167H18.6663V10.9167H9.33301V12.4167ZM9.33301 17.0833H13.9997V15.5833H9.33301V17.0833Z" fill="#1F2937"/>
</svg>
