<svg width="390" height="374" viewBox="0 0 390 374" fill="none" xmlns="http://www.w3.org/2000/svg">
<mask id="mask0_419_4760" style="mask-type:alpha" maskUnits="userSpaceOnUse" x="0" y="-11" width="390" height="385">
<path fill-rule="evenodd" clip-rule="evenodd" d="M390 -11H0V291V294.482C27.6845 340.736 104.532 374 195 374C285.468 374 362.316 340.736 390 294.482V291V-11Z" fill="#D9D9D9"/>
</mask>
<g mask="url(#mask0_419_4760)">
<rect width="390" height="374" fill="#FFB7AC"/>
<path d="M390 0L0 374V0H390Z" fill="url(#paint0_linear_419_4760)"/>
</g>
<rect x="143" y="135" width="104" height="104" rx="52" fill="white"/>
<path fill-rule="evenodd" clip-rule="evenodd" d="M189.302 203C188.566 203 187.862 202.696 187.358 202.16L174.39 188.349C173.38 187.277 173.436 185.589 174.508 184.581C175.582 183.573 177.27 183.627 178.276 184.699L189.276 196.408L211.697 171.869C212.694 170.779 214.38 170.707 215.468 171.699C216.553 172.691 216.628 174.379 215.636 175.464L191.27 202.131C190.772 202.68 190.062 202.995 189.321 203H189.302Z" fill="#FFB7AC"/>
<path d="M102 111L104.694 119.292H113.413L106.359 124.416L109.053 132.708L102 127.584L94.9466 132.708L97.6407 124.416L90.5873 119.292H99.3058L102 111Z" fill="white"/>
<path d="M312 171L314.694 179.292H323.413L316.359 184.416L319.053 192.708L312 187.584L304.947 192.708L307.641 184.416L300.587 179.292H309.306L312 171Z" fill="white"/>
<path d="M222 246L224.021 252.219H230.56L225.269 256.062L227.29 262.281L222 258.438L216.71 262.281L218.731 256.062L213.44 252.219H219.979L222 246Z" fill="white"/>
<path d="M247 87L249.021 93.2188H255.56L250.269 97.0623L252.29 103.281L247 99.4377L241.71 103.281L243.731 97.0623L238.44 93.2188H244.979L247 87Z" fill="white"/>
<path d="M90 255L92.0206 261.219H98.5595L93.2694 265.062L95.2901 271.281L90 267.438L84.7099 271.281L86.7306 265.062L81.4405 261.219H87.9794L90 255Z" fill="white"/>
<path d="M276 265L276.898 267.764H279.804L277.453 269.472L278.351 272.236L276 270.528L273.649 272.236L274.547 269.472L272.196 267.764H275.102L276 265Z" fill="white"/>
<path d="M104 175L104.898 177.764H107.804L105.453 179.472L106.351 182.236L104 180.528L101.649 182.236L102.547 179.472L100.196 177.764H103.102L104 175Z" fill="white"/>
<defs>
<linearGradient id="paint0_linear_419_4760" x1="358" y1="52.6761" x2="186.717" y2="42.3474" gradientUnits="userSpaceOnUse">
<stop stop-color="white" stop-opacity="0.11"/>
<stop offset="1" stop-color="white" stop-opacity="0"/>
</linearGradient>
</defs>
</svg>
