<svg width="24" height="26" viewBox="0 0 24 26" fill="none" xmlns="http://www.w3.org/2000/svg">
<path d="M12 9.91667C11.5858 9.91667 11.25 10.2525 11.25 10.6667C11.25 11.0809 11.5858 11.4167 12 11.4167V9.91667ZM16.6667 11.4167C17.0809 11.4167 17.4167 11.0809 17.4167 10.6667C17.4167 10.2525 17.0809 9.91667 16.6667 9.91667V11.4167ZM12 14.5833C11.5858 14.5833 11.25 14.9191 11.25 15.3333C11.25 15.7475 11.5858 16.0833 12 16.0833V14.5833ZM16.6667 16.0833C17.0809 16.0833 17.4167 15.7475 17.4167 15.3333C17.4167 14.9191 17.0809 14.5833 16.6667 14.5833V16.0833ZM12 19.25C11.5858 19.25 11.25 19.5858 11.25 20C11.25 20.4142 11.5858 20.75 12 20.75V19.25ZM16.6667 20.75C17.0809 20.75 17.4167 20.4142 17.4167 20C17.4167 19.5858 17.0809 19.25 16.6667 19.25V20.75ZM21.75 8.33334V20H23.25V8.33334H21.75ZM17.8333 23.9167H6.16667V25.4167H17.8333V23.9167ZM2.25 20V8.33334H0.75V20H2.25ZM16.6667 4.41667H17.8333V2.91667H16.6667V4.41667ZM6.16667 4.41667H7.33333V2.91667H6.16667V4.41667ZM6.16667 23.9167C4.00355 23.9167 2.25 22.1631 2.25 20H0.75C0.75 22.9915 3.17512 25.4167 6.16667 25.4167V23.9167ZM21.75 20C21.75 22.1631 19.9964 23.9167 17.8333 23.9167V25.4167C20.8249 25.4167 23.25 22.9915 23.25 20H21.75ZM23.25 8.33334C23.25 5.34179 20.8249 2.91667 17.8333 2.91667V4.41667C19.9964 4.41667 21.75 6.17022 21.75 8.33334H23.25ZM2.25 8.33334C2.25 6.17022 4.00355 4.41667 6.16667 4.41667V2.91667C3.17512 2.91667 0.75 5.34179 0.75 8.33334H2.25ZM9.66667 2.08334H14.3333V0.583336H9.66667V2.08334ZM14.3333 5.25H9.66667V6.75H14.3333V5.25ZM9.66667 5.25C8.79222 5.25 8.08333 4.54112 8.08333 3.66667H6.58333C6.58333 5.36955 7.96379 6.75 9.66667 6.75V5.25ZM15.9167 3.66667C15.9167 4.54112 15.2078 5.25 14.3333 5.25V6.75C16.0362 6.75 17.4167 5.36955 17.4167 3.66667H15.9167ZM14.3333 2.08334C15.2078 2.08334 15.9167 2.79222 15.9167 3.66667H17.4167C17.4167 1.96379 16.0362 0.583336 14.3333 0.583336V2.08334ZM9.66667 0.583336C7.96379 0.583336 6.58333 1.96379 6.58333 3.66667H8.08333C8.08333 2.79222 8.79222 2.08334 9.66667 2.08334V0.583336ZM12 11.4167H16.6667V9.91667H12V11.4167ZM12 16.0833H16.6667V14.5833H12V16.0833ZM12 20.75H16.6667V19.25H12V20.75Z" fill="#1F2937"/>
</svg>
