<svg width="28" height="28" viewBox="0 0 28 28" fill="none" xmlns="http://www.w3.org/2000/svg">
<path d="M4.9496 7.03483L4.22199 6.85293L4.9496 7.03483ZM3.05812 14.6008L3.78573 14.7827L3.78573 14.7827L3.05812 14.6008ZM11.6666 17.5L12.2907 17.916C12.4441 17.6859 12.4584 17.39 12.3279 17.1461C12.1974 16.9022 11.9432 16.75 11.6666 16.75V17.5ZM10.023 19.9655L9.39897 19.5494L9.39897 19.5494L10.023 19.9655ZM14 24.5V25.25C14.2691 25.25 14.5176 25.1058 14.6512 24.8721L14 24.5ZM18.5129 16.6023L17.8617 16.2302L17.8617 16.2302L18.5129 16.6023ZM18.1471 5.48699L18.5632 4.86295L18.5632 4.86295L18.1471 5.48699ZM16.3423 4.28377L15.9263 4.9078L15.9263 4.9078L16.3423 4.28377ZM23.3333 16.75H21V18.25H23.3333V16.75ZM19.4166 15.1667L19.4166 7H17.9166L17.9166 15.1667H19.4166ZM21 5.41667L23.3333 5.41667V3.91667L21 3.91667V5.41667ZM24.9166 7L24.9166 15.1667H26.4166L26.4166 7H24.9166ZM23.3333 5.41667C24.2078 5.41667 24.9166 6.12555 24.9166 7H26.4166C26.4166 5.29712 25.0362 3.91667 23.3333 3.91667V5.41667ZM19.4166 7C19.4166 6.12555 20.1255 5.41667 21 5.41667V3.91667C19.2971 3.91667 17.9166 5.29712 17.9166 7H19.4166ZM21 16.75C20.1255 16.75 19.4166 16.0411 19.4166 15.1667H17.9166C17.9166 16.8695 19.2971 18.25 21 18.25V16.75ZM23.3333 18.25C25.0362 18.25 26.4166 16.8695 26.4166 15.1667H24.9166C24.9166 16.0411 24.2078 16.75 23.3333 16.75V18.25ZM13.7537 2.75L9.47693 2.75V4.25L13.7537 4.25V2.75ZM4.22199 6.85293L2.33051 14.4188L3.78573 14.7827L5.67721 7.21674L4.22199 6.85293ZM5.32179 18.25H11.6666V16.75H5.32179V18.25ZM11.0426 17.084L9.39897 19.5494L10.647 20.3815L12.2907 17.916L11.0426 17.084ZM12.4498 25.25H14V23.75H12.4498V25.25ZM14.6512 24.8721L19.1641 16.9744L17.8617 16.2302L13.3488 24.1279L14.6512 24.8721ZM19.4166 16.0235L19.4166 6.45771H17.9166L17.9166 16.0235H19.4166ZM18.5632 4.86295L16.7583 3.65973L15.9263 4.9078L17.7311 6.11103L18.5632 4.86295ZM19.4166 6.45771C19.4166 5.81687 19.0964 5.21843 18.5632 4.86295L17.7311 6.11103C17.847 6.1883 17.9166 6.3184 17.9166 6.45771H19.4166ZM2.33051 14.4188C1.84401 16.3649 3.31586 18.25 5.32179 18.25V16.75C4.29172 16.75 3.5359 15.782 3.78573 14.7827L2.33051 14.4188ZM9.47693 2.75C6.9914 2.75 4.82482 4.44161 4.22199 6.85293L5.67721 7.21674C6.1131 5.47316 7.6797 4.25 9.47693 4.25V2.75ZM13.7537 4.25C14.5269 4.25 15.2829 4.47888 15.9263 4.9078L16.7583 3.65973C15.8685 3.06654 14.8231 2.75 13.7537 2.75V4.25ZM9.39897 19.5494C7.7745 21.9861 9.52127 25.25 12.4498 25.25V23.75C10.7193 23.75 9.68713 21.8214 10.647 20.3815L9.39897 19.5494ZM19.1641 16.9744C19.3296 16.6848 19.4166 16.3571 19.4166 16.0235H17.9166C17.9166 16.096 17.8977 16.1673 17.8617 16.2302L19.1641 16.9744Z" fill="#1F2937"/>
</svg>
