<svg width="25" height="24" viewBox="0 0 25 24" fill="none" xmlns="http://www.w3.org/2000/svg">
<path d="M2.9496 5.03483L2.22199 4.85293L2.9496 5.03483ZM1.05812 12.6008L1.78573 12.7827L1.05812 12.6008ZM9.66664 15.5L10.2907 15.916C10.4441 15.6859 10.4584 15.39 10.3279 15.1461C10.1974 14.9022 9.94324 14.75 9.66664 14.75V15.5ZM8.023 17.9655L7.39897 17.5494H7.39896L8.023 17.9655ZM12 22.5V23.25C12.2691 23.25 12.5176 23.1058 12.6512 22.8721L12 22.5ZM16.5129 14.6023L15.8617 14.2302L15.8617 14.2302L16.5129 14.6023ZM16.1471 3.48699L16.5632 2.86295L16.5632 2.86295L16.1471 3.48699ZM14.3423 2.28377L13.9263 2.9078L13.9263 2.9078L14.3423 2.28377ZM21.3333 14.75H19V16.25H21.3333V14.75ZM17.4166 13.1667L17.4166 5H15.9166L15.9166 13.1667H17.4166ZM19 3.41667L21.3333 3.41667V1.91667L19 1.91667V3.41667ZM22.9166 5L22.9166 13.1667H24.4166L24.4166 5H22.9166ZM21.3333 3.41667C22.2078 3.41667 22.9166 4.12555 22.9166 5H24.4166C24.4166 3.29712 23.0362 1.91667 21.3333 1.91667V3.41667ZM17.4166 5C17.4166 4.12555 18.1255 3.41667 19 3.41667V1.91667C17.2971 1.91667 15.9166 3.29712 15.9166 5H17.4166ZM19 14.75C18.1255 14.75 17.4166 14.0411 17.4166 13.1667H15.9166C15.9166 14.8695 17.2971 16.25 19 16.25V14.75ZM21.3333 16.25C23.0362 16.25 24.4166 14.8695 24.4166 13.1667H22.9166C22.9166 14.0411 22.2078 14.75 21.3333 14.75V16.25ZM11.7537 0.75L7.47693 0.75V2.25L11.7537 2.25V0.75ZM2.22199 4.85293L0.330515 12.4188L1.78573 12.7827L3.67721 5.21674L2.22199 4.85293ZM3.32179 16.25H9.66664V14.75L3.32179 14.75L3.32179 16.25ZM9.0426 15.084L7.39897 17.5494L8.64704 18.3815L10.2907 15.916L9.0426 15.084ZM10.4498 23.25H12V21.75H10.4498V23.25ZM12.6512 22.8721L17.1641 14.9744L15.8617 14.2302L11.3488 22.1279L12.6512 22.8721ZM17.4166 14.0235L17.4166 4.45771H15.9166L15.9166 14.0235H17.4166ZM16.5632 2.86295L14.7583 1.65973L13.9263 2.9078L15.7311 4.11103L16.5632 2.86295ZM17.4166 4.45771C17.4166 3.81687 17.0964 3.21843 16.5632 2.86295L15.7311 4.11103C15.847 4.1883 15.9166 4.3184 15.9166 4.45771H17.4166ZM0.330515 12.4188C-0.155994 14.3649 1.31586 16.25 3.32179 16.25L3.32179 14.75C2.29172 14.75 1.5359 13.782 1.78573 12.7827L0.330515 12.4188ZM7.47693 0.75C4.9914 0.75 2.82482 2.44161 2.22199 4.85293L3.67721 5.21674C4.1131 3.47316 5.6797 2.25 7.47693 2.25V0.75ZM11.7537 2.25C12.5269 2.25 13.2829 2.47888 13.9263 2.9078L14.7583 1.65973C13.8685 1.06654 12.8231 0.75 11.7537 0.75V2.25ZM7.39896 17.5494C5.7745 19.9861 7.52127 23.25 10.4498 23.25V21.75C8.71931 21.75 7.68713 19.8214 8.64704 18.3815L7.39896 17.5494ZM17.1641 14.9744C17.3296 14.6848 17.4166 14.3571 17.4166 14.0235H15.9166C15.9166 14.096 15.8977 14.1673 15.8617 14.2302L17.1641 14.9744Z" fill="#1F2937"/>
</svg>
