<svg width="16" height="16" viewBox="0 0 16 16" fill="none" xmlns="http://www.w3.org/2000/svg">
<path fill-rule="evenodd" clip-rule="evenodd" d="M2.8679 2.03081C2.85989 2.03784 2.85239 2.04456 2.8454 2.05096C2.68535 2.1885 2.58398 2.39241 2.58398 2.62V2.6211V2.62127V9.33368V9.33374V14C2.58398 14.4142 2.91977 14.75 3.33398 14.75C3.7482 14.75 4.08398 14.4142 4.08398 14V9.80169C4.36312 9.70932 4.86466 9.59863 5.66734 9.59863C6.37995 9.59863 6.98293 9.82887 7.72529 10.1219L7.76463 10.1374C8.47254 10.417 9.31554 10.75 10.334 10.75C11.3042 10.75 11.9931 10.5689 12.4628 10.3591C12.6965 10.2547 12.8716 10.1451 12.9967 10.052C13.0591 10.0056 13.1086 9.96353 13.1465 9.9287C13.1654 9.91129 13.1814 9.8957 13.1946 9.8823C13.2012 9.8756 13.2071 9.86944 13.2124 9.86387L13.2197 9.85598L13.223 9.85237L13.2245 9.85065L13.2253 9.84982C13.2253 9.84976 13.2254 9.84972 13.2242 9.8486L13.2248 9.84794L13.226 9.849C13.3598 9.69967 13.4227 9.51155 13.417 9.32585V2.68913C13.4223 2.51275 13.3658 2.33377 13.2442 2.18737C13.1574 2.08286 13.0481 2.00794 12.9293 1.96377C12.8476 1.93329 12.7593 1.91663 12.667 1.91663C12.4948 1.91663 12.3362 1.97465 12.2096 2.07221C12.2047 2.07524 12.1967 2.08005 12.1854 2.08632C12.1448 2.1088 12.0598 2.15093 11.9204 2.19728C11.6418 2.28984 11.1396 2.40133 10.334 2.40133C9.62138 2.40133 9.01839 2.17109 8.27603 1.87805L8.2367 1.86252C7.52878 1.58293 6.68578 1.25 5.66732 1.25C4.70184 1.25 4.0172 1.42181 3.55043 1.62068C3.31795 1.71973 3.1434 1.82387 3.01825 1.91274C2.95581 1.95707 2.90608 1.99731 2.8679 2.03081Z" fill="#6B7280"/>
</svg>
