<svg width="29" height="28" viewBox="0 0 29 28" fill="none" xmlns="http://www.w3.org/2000/svg">
<path d="M21.333 2.75C20.9188 2.75 20.583 3.08579 20.583 3.5C20.583 3.91421 20.9188 4.25 21.333 4.25V2.75ZM7.33301 4.25C7.74722 4.25 8.08301 3.91421 8.08301 3.5C8.08301 3.08579 7.74722 2.75 7.33301 2.75V4.25ZM11.2497 20.4167C11.2497 22.2576 9.75729 23.75 7.91634 23.75V25.25C10.5857 25.25 12.7497 23.086 12.7497 20.4167H11.2497ZM7.91634 23.75C6.07539 23.75 4.58301 22.2576 4.58301 20.4167H3.08301C3.08301 23.086 5.24696 25.25 7.91634 25.25V23.75ZM4.58301 20.4167C4.58301 18.5757 6.07539 17.0833 7.91634 17.0833V15.5833C5.24696 15.5833 3.08301 17.7473 3.08301 20.4167H4.58301ZM7.91634 17.0833C9.75729 17.0833 11.2497 18.5757 11.2497 20.4167H12.7497C12.7497 17.7473 10.5857 15.5833 7.91634 15.5833V17.0833ZM24.083 20.4167C24.083 22.2576 22.5906 23.75 20.7497 23.75V25.25C23.4191 25.25 25.583 23.086 25.583 20.4167H24.083ZM20.7497 23.75C18.9087 23.75 17.4163 22.2576 17.4163 20.4167H15.9163C15.9163 23.086 18.0803 25.25 20.7497 25.25V23.75ZM17.4163 20.4167C17.4163 18.5757 18.9087 17.0833 20.7497 17.0833V15.5833C18.0803 15.5833 15.9163 17.7473 15.9163 20.4167H17.4163ZM20.7497 17.0833C22.5906 17.0833 24.083 18.5757 24.083 20.4167H25.583C25.583 17.7473 23.4191 15.5833 20.7497 15.5833V17.0833ZM12.7497 21C12.7497 20.1255 13.4586 19.4167 14.333 19.4167V17.9167C12.6301 17.9167 11.2497 19.2971 11.2497 21H12.7497ZM14.333 19.4167C15.2075 19.4167 15.9163 20.1255 15.9163 21H17.4163C17.4163 19.2971 16.0359 17.9167 14.333 17.9167V19.4167ZM21.333 4.25C22.8518 4.25 24.083 5.48122 24.083 7H25.583C25.583 4.65279 23.6802 2.75 21.333 2.75V4.25ZM24.083 7V20.4167H25.583V7H24.083ZM7.33301 2.75C4.9858 2.75 3.08301 4.65279 3.08301 7H4.58301C4.58301 5.48122 5.81422 4.25 7.33301 4.25V2.75ZM3.08301 7V20.4167H4.58301V7H3.08301Z" fill="#6B7280"/>
</svg>
