<svg width="28" height="28" viewBox="0 0 28 28" fill="none" xmlns="http://www.w3.org/2000/svg">
<path d="M5.21484 8.19761L4.73809 7.61863L4.73809 7.61863L5.21484 8.19761ZM11.0482 3.39423L10.5714 2.81526L10.5714 2.81526L11.0482 3.39423ZM16.9518 3.39423L16.4751 3.97321L16.4751 3.97321L16.9518 3.39423ZM22.7852 8.1976L22.3084 8.77658L22.3084 8.77658L22.7852 8.1976ZM23.75 11.842V20.9613H25.25V11.842H23.75ZM19.8333 24.9167H8.16667V26.4167H19.8333V24.9167ZM4.25 20.9613V11.842H2.75V20.9613H4.25ZM5.69159 8.77658L11.5249 3.97321L10.5714 2.81526L4.73809 7.61863L5.69159 8.77658ZM16.4751 3.97321L22.3084 8.77658L23.2619 7.61863L17.4286 2.81526L16.4751 3.97321ZM11.5249 3.97321C12.9658 2.7867 15.0342 2.7867 16.4751 3.97321L17.4286 2.81526C15.4338 1.17268 12.5662 1.17269 10.5714 2.81526L11.5249 3.97321ZM8.16667 24.9167C6.00938 24.9167 4.25 23.1516 4.25 20.9613H2.75C2.75 23.9684 5.1693 26.4167 8.16667 26.4167V24.9167ZM23.75 20.9613C23.75 23.1516 21.9906 24.9167 19.8333 24.9167V26.4167C22.8307 26.4167 25.25 23.9684 25.25 20.9613H23.75ZM25.25 11.842C25.25 10.2064 24.5212 8.65555 23.2619 7.61863L22.3084 8.77658C23.2197 9.52693 23.75 10.6521 23.75 11.842H25.25ZM4.25 11.842C4.25 10.6521 4.78034 9.52693 5.69159 8.77658L4.73809 7.61863C3.47883 8.65555 2.75 10.2064 2.75 11.842H4.25Z" fill="#1F2937"/>
<path d="M11.667 21H16.3337" stroke="#1F2937" stroke-width="1.5" stroke-linecap="round"/>
</svg>
