<svg width="25" height="24" viewBox="0 0 25 24" fill="none" xmlns="http://www.w3.org/2000/svg">
<path d="M2.9496 18.9652L2.22199 19.1471L2.9496 18.9652ZM1.05812 11.3992L1.78573 11.2173L1.05812 11.3992ZM9.66664 8.5V9.25C9.94324 9.25 10.1974 9.09776 10.3279 8.85389C10.4584 8.61002 10.4441 8.31412 10.2907 8.08397L9.66664 8.5ZM8.023 6.03454L7.39896 6.45057H7.39897L8.023 6.03454ZM12 1.5L12.6512 1.1279C12.5176 0.894215 12.2691 0.75 12 0.75V1.5ZM16.5129 9.39766L15.8617 9.76977L15.8617 9.76977L16.5129 9.39766ZM16.1471 20.513L16.5632 21.137H16.5632L16.1471 20.513ZM14.3423 21.7162L13.9263 21.0922L13.9263 21.0922L14.3423 21.7162ZM21.3333 6.58333H19V8.08333H21.3333V6.58333ZM15.9166 9.66667V20.1667H17.4166V9.66667H15.9166ZM19 23.25H21.3333V21.75H19V23.25ZM24.4166 20.1667V9.66667H22.9166V20.1667H24.4166ZM21.3333 23.25C23.0362 23.25 24.4166 21.8695 24.4166 20.1667H22.9166C22.9166 21.0411 22.2078 21.75 21.3333 21.75V23.25ZM15.9166 20.1667C15.9166 21.8695 17.2971 23.25 19 23.25V21.75C18.1255 21.75 17.4166 21.0411 17.4166 20.1667H15.9166ZM19 6.58333C17.2971 6.58333 15.9166 7.96379 15.9166 9.66667H17.4166C17.4166 8.79222 18.1255 8.08333 19 8.08333V6.58333ZM21.3333 8.08333C22.2078 8.08333 22.9166 8.79222 22.9166 9.66667H24.4166C24.4166 7.96379 23.0362 6.58333 21.3333 6.58333V8.08333ZM11.7537 21.75H7.47693V23.25H11.7537V21.75ZM3.67721 18.7833L1.78573 11.2173L0.330515 11.5812L2.22199 19.1471L3.67721 18.7833ZM3.32179 9.25H9.66664V7.75H3.32179V9.25ZM10.2907 8.08397L8.64704 5.61852L7.39897 6.45057L9.0426 8.91603L10.2907 8.08397ZM10.4498 2.25H12V0.75H10.4498V2.25ZM11.3488 1.8721L15.8617 9.76977L17.1641 9.02556L12.6512 1.1279L11.3488 1.8721ZM15.9166 9.97649V19.5423H17.4166V9.97649H15.9166ZM15.7311 19.889L13.9263 21.0922L14.7583 22.3403L16.5632 21.137L15.7311 19.889ZM15.9166 19.5423C15.9166 19.6816 15.847 19.8117 15.7311 19.889L16.5632 21.137C17.0964 20.7816 17.4166 20.1831 17.4166 19.5423H15.9166ZM1.78573 11.2173C1.5359 10.218 2.29172 9.25 3.32179 9.25V7.75C1.31586 7.75 -0.155994 9.63511 0.330515 11.5812L1.78573 11.2173ZM7.47693 21.75C5.6797 21.75 4.1131 20.5268 3.67721 18.7833L2.22199 19.1471C2.82482 21.5584 4.9914 23.25 7.47693 23.25V21.75ZM11.7537 23.25C12.8231 23.25 13.8685 22.9335 14.7583 22.3403L13.9263 21.0922C13.2829 21.5211 12.5269 21.75 11.7537 21.75V23.25ZM8.64704 5.61852C7.68713 4.17865 8.71931 2.25 10.4498 2.25V0.75C7.52127 0.75 5.7745 4.01386 7.39896 6.45057L8.64704 5.61852ZM15.8617 9.76977C15.8977 9.83272 15.9166 9.90398 15.9166 9.97649H17.4166C17.4166 9.64294 17.3296 9.31516 17.1641 9.02556L15.8617 9.76977Z" fill="#1F2937"/>
</svg>
