<svg width="22" height="12" viewBox="0 0 22 12" fill="none" xmlns="http://www.w3.org/2000/svg">
<path fill-rule="evenodd" clip-rule="evenodd" d="M7.99966 10H6.20966C4.10366 10 2.20366 8.465 2.01666 6.366C1.80366 3.996 3.67266 2 5.99966 2H7.99966C8.55166 2 8.99966 1.553 8.99966 1C8.99966 0.447 8.55166 0 7.99966 0H6.20866C3.15966 0 0.438663 2.187 0.0506627 5.211C-0.418337 8.869 2.43166 12 5.99966 12H7.99966C8.55166 12 8.99966 11.553 8.99966 11C8.99966 10.447 8.55166 10 7.99966 10ZM6.99966 6C6.99966 6.553 7.44766 7 7.99966 7H13.9997C14.5517 7 14.9997 6.553 14.9997 6C14.9997 5.447 14.5517 5 13.9997 5H7.99966C7.44766 5 6.99966 5.447 6.99966 6ZM15.7588 0.0002C18.8258 0.0002 21.5778 2.1972 21.9528 5.2422C22.4018 8.8882 19.5578 12.0002 15.9998 12.0002H13.9998C13.4478 12.0002 12.9998 11.5532 12.9998 11.0002C12.9998 10.4472 13.4478 10.0002 13.9998 10.0002H15.9998C18.3268 10.0002 20.1958 8.0042 19.9828 5.6342C19.7958 3.5352 17.8958 2.0002 15.7888 2.0002H13.9998C13.4478 2.0002 12.9998 1.5532 12.9998 1.0002C12.9998 0.4472 13.4428 0.0002 14.2488 0.0002H15.7588Z" fill="#1F2937"/>
</svg>
