<svg width="226" height="68" viewBox="0 0 226 68" fill="none" xmlns="http://www.w3.org/2000/svg">
<g clip-path="url(#clip0_419_4720)">
<path d="M165.92 46.8066H159.347C159.347 46.4666 159.347 46.1266 159.347 45.7866C159.347 39.44 159.347 33.0933 159.233 26.7466C159.233 25.0466 158.78 23.3466 158.327 21.8733C156.513 16.66 151.073 15.98 147.333 18.4733C144.387 20.4 142.913 23.3466 142.8 26.86C142.687 31.96 142.8 37.06 142.8 42.16C142.8 44.0866 143.367 45.7866 145.293 46.92H135.887C137.02 46.24 137.813 45.3333 138.04 44.2C138.267 43.4066 138.38 42.6133 138.38 41.9333C138.38 36.4933 138.38 31.1666 138.38 25.7266C138.38 24.5933 138.267 23.46 138.04 22.3266C137.927 21.6466 137.473 20.8533 137.247 20.1733C139.287 19.72 141.213 18.7 142.687 16.66V23.12H142.8C143.14 22.5533 143.367 21.8733 143.707 21.3066C145.973 17.4533 149.827 15.7533 154.247 16.4333C160.027 17.34 163.427 21.3066 163.54 27.4266C163.653 31.96 163.54 36.6066 163.54 41.2533C163.54 41.7066 163.54 42.16 163.54 42.6133C163.767 44.2 164.333 45.7866 165.92 46.8066Z" fill="#1F2937"/>
<path d="M28.6733 23.9133C25.5 21.42 21.5333 20.1733 17.9066 18.36C15.3 17.1133 12.6933 15.7533 10.3133 14.1667C8.38665 12.92 7.02665 11.22 6.91331 8.72668C6.91331 6.00668 8.38665 4.08001 10.4266 2.60668C14.62 -0.339986 21.9866 -0.11332 26.0666 3.17335C28.3333 4.98668 29.58 7.36668 29.0133 10.3133C28.9 10.9933 28.56 11.6733 28.4466 12.3533C28.1066 13.6 28.6733 14.7333 29.6933 15.1867C31.1666 15.64 32.1866 14.96 32.5266 13.3733C33.2066 9.74668 31.96 5.32668 28.22 2.94668C23.0066 -0.339986 17.4533 -0.679986 11.7866 1.13335C7.70665 2.38001 5.43998 5.32668 4.75998 9.52001C4.19331 13.0333 6.00665 15.5267 8.38665 17.7933C10.88 20.06 13.94 21.42 16.8866 23.0067C20.1733 24.7067 23.5733 26.52 26.7466 28.4467C27.2 28.6733 27.6533 29.0133 28.22 29.4667C31.28 31.8467 32.98 35.4734 32.8666 39.3267C32.8666 39.44 32.8666 39.5534 32.8666 39.6667C32.4133 46.24 27.0866 53.38 16.8866 52.9267C6.68665 52.5867 0.679981 45.3334 0.793315 39.3267C0.906648 33.32 5.43998 27.54 12.1266 28.6733C18.9266 29.8067 20.2866 35.02 20.06 36.9467C19.8333 38.9867 19.38 41.5934 17.34 42.16C15.1866 42.84 13.6 41.0267 11.6733 41.7067C9.74665 42.3867 10.54 45.9 14.1666 45.4467C17.7933 44.9934 20.6266 41.5933 20.74 36.9467C20.8533 32.3 17.1133 28.1067 11.6733 27.4267C6.23331 26.86 0.566648 32.3 -1.87419e-05 38.5334C-0.566685 45.3334 4.75998 53.6067 17 53.9467C29.1266 54.2867 34.2267 44.9934 34.5667 38.6467C34.68 37.06 36.2666 29.92 28.6733 23.9133Z" fill="#1F2937"/>
<path d="M63.58 46.8067H56.6667V42.0467C56.5533 42.16 56.44 42.16 56.44 42.16C54.9667 44.88 52.5867 46.24 49.7533 46.92C47.6 47.4867 45.4467 47.6 43.18 47.0333C38.76 46.0133 37.4 42.5 38.1933 38.76C38.76 36.04 40.5733 34.2267 43.0667 33.2067C45.56 32.1867 48.1667 31.28 50.7733 30.26C51.68 29.92 52.4733 29.58 53.38 29.1267C55.76 27.88 57.0067 26.52 56.6667 23.2334C56.2133 19.72 54.1733 17.1134 50.8867 16.66C48.62 16.32 46.58 17 44.7667 18.36C43.2933 19.6067 43.18 21.42 43.4067 23.2334C43.52 24.14 43.6333 24.9334 43.6333 25.84C43.6333 26.9733 42.7267 27.7667 41.7067 27.88C40.46 27.88 39.6667 27.3134 39.5533 26.0667C39.2133 23.3467 40.46 21.08 42.2733 19.1534C46.24 15.0734 53.8333 15.1867 57.9133 18.5867C60.0667 20.4 60.9733 22.78 61.0867 25.5C61.2 30.4867 61.0867 35.4734 61.2 40.46C61.2 41.2533 61.2 42.0467 61.3133 42.84C61.2 44.6533 61.88 45.9 63.58 46.8067ZM56.5533 27.2C55.9867 27.6534 55.5333 28.3334 54.9667 28.6733C53.6067 29.4667 52.1333 30.26 50.66 30.94C48.96 31.7333 47.26 32.4133 45.56 33.2067C43.7467 34.1133 42.3867 35.5867 41.82 37.6267C40.9133 40.8 42.0467 44.88 46.0133 45.9C47.7133 46.3533 49.5267 46.3533 51.2267 45.7867C54.1733 44.7667 56.3267 42.9534 56.44 39.5534C56.6667 35.36 56.5533 31.28 56.5533 27.2Z" fill="#1F2937"/>
<path d="M102.907 31.5067C102.793 23.46 109.593 16.5467 117.753 16.32C126.367 16.0933 133.28 22.78 133.393 31.5067C133.507 39.8933 126.707 46.8067 118.32 46.92C109.593 47.0333 102.793 39.8933 102.907 31.5067ZM120.473 45.9C120.927 45.9 121.493 45.9 122.06 45.7867C125.573 44.9933 127.727 42.7267 128.86 39.44C130.56 34.5667 129.767 29.8067 127.273 25.3867C125.46 21.9867 122.967 19.2667 119.227 17.9067C115.713 16.66 112.54 17.1133 109.82 19.8333C107.44 22.2133 106.533 25.16 106.533 28.4467C106.533 33.4333 108.12 37.8533 111.407 41.48C113.787 44.0867 116.62 45.7867 120.473 45.9Z" fill="#1F2937"/>
<path d="M225.533 37.5133C225.42 38.1933 225.42 38.8733 225.193 39.5533C224.4 42.0466 222.7 43.9733 220.433 45.1066C215.333 47.6 210.12 47.6 205.133 44.6533C201.96 42.7266 200.26 39.78 199.467 36.2666C198.56 31.7333 198.9 27.2 201.28 23.12C203.66 19.04 207.4 16.8866 211.933 16.32C215.107 15.8666 218.167 16.2066 221 17.5666C223.72 18.8133 225.307 20.8533 225.42 23.8C225.647 26.86 224.4 29.24 221.68 30.8266C219.3 32.3 216.58 32.8666 213.973 33.66C211.82 34.34 209.78 34.9066 207.74 35.8133C206.607 36.2666 205.7 37.2866 204.793 38.08C204.34 38.42 204.34 38.8733 204.567 39.44C207.287 46.24 213.86 47.7133 219.753 44.7666C222.587 43.4066 224.513 41.2533 224.853 37.9666C224.853 37.74 224.967 37.6266 225.08 37.4C225.307 37.5133 225.42 37.5133 225.533 37.5133ZM204.113 37.9666C205.473 36.9466 206.72 35.8133 208.08 35.1333C209.667 34.2266 211.48 33.66 213.18 32.8666C214.993 32.0733 216.807 31.3933 218.393 30.3733C221.34 28.4466 222.36 24.7066 221 21.3066C219.753 18.2466 216.353 16.32 212.953 16.8866C209.213 17.5666 206.493 19.72 204.907 23.12C203.093 27.0866 203.093 31.1666 203.547 35.36C203.66 36.2666 203.887 37.1733 204.113 37.9666Z" fill="#1F2937"/>
<path d="M194.82 37.5133C194.82 37.8533 194.933 38.08 194.82 38.42C194.367 41.3666 192.78 43.6333 190.173 44.9933C184.96 47.7133 179.747 47.8266 174.533 44.88C171.247 42.9533 169.433 39.78 168.753 36.04C167.96 31.5066 168.3 27.2 170.68 23.12C173.06 19.1533 176.687 17 181.333 16.32C184.507 15.8666 187.567 16.2066 190.513 17.5666C193.233 18.8133 194.707 20.8533 194.933 23.8C195.16 26.86 193.8 29.24 191.193 30.8266C188.587 32.4133 185.64 32.98 182.807 33.8866C180.993 34.4533 179.18 35.02 177.367 35.8133C176.233 36.2666 175.327 37.1733 174.42 37.9666C173.853 38.42 173.853 38.9866 174.193 39.5533C176.46 45.1066 181.9 47.4866 187.793 45.4466C190.74 44.4266 193.007 42.7266 194.14 39.6666C194.367 38.8733 194.48 38.08 194.707 37.2866C194.593 37.5133 194.707 37.5133 194.82 37.5133ZM173.513 38.1933C176.46 35.4733 177.14 35.02 180.88 33.4333C183.033 32.5266 185.3 31.62 187.227 30.4866C190.4 28.6733 191.647 24.82 190.287 21.3066C189.153 18.1333 185.64 16.2066 182.127 16.7733C178.727 17.34 176.347 19.2666 174.647 22.2133C173.287 24.5933 172.72 27.2 172.607 29.92C172.607 32.7533 172.833 35.4733 173.513 38.1933Z" fill="#1F2937"/>
<path d="M72.8732 16.5467V17.68C72.8732 25.3867 72.8732 33.2067 72.8732 40.9134C72.8732 41.5934 72.8732 42.3867 72.9866 43.0667C73.2132 44.6534 73.8932 45.9 75.4799 46.8067H66.0732C68.3399 45.4467 68.6799 43.2934 68.6799 41.0267C68.6799 36.2667 68.6799 31.3934 68.6799 26.6334C68.6799 25.2734 68.6799 23.8 68.4532 22.44C68.3399 21.6467 67.8866 20.74 67.5466 19.9467C69.4732 19.6067 71.2866 18.5867 72.8732 16.5467Z" fill="#1F2937"/>
<path d="M70.0401 14.8467C68.5667 14.8467 67.3201 13.7133 67.3201 12.1267C67.3201 10.6533 68.5667 9.40668 70.0401 9.40668C71.5134 9.40668 72.7601 10.6533 72.7601 12.1267C72.7601 13.6 71.6267 14.8467 70.0401 14.8467Z" fill="#1F2937"/>
<path d="M138.267 51.7933C138.04 50.7733 137.587 49.8667 137.02 48.96C136.453 48.1667 135.773 47.3733 134.867 46.6933C134.413 46.3533 134.073 46.1267 133.507 45.9L133.28 45.7867L133.053 45.6733C132.94 45.6733 132.827 45.56 132.713 45.56C132.487 45.4467 132.26 45.4467 131.92 45.3333C130.9 45.1067 129.767 45.3333 128.86 45.56C128.86 45.56 125.233 46.4667 124.78 48.5067C124.44 49.8667 126.48 51.1133 128.293 49.7533C129.313 48.96 129.54 47.6 129.993 46.6933C130.333 46.0133 131.127 45.56 131.92 45.6733C132.147 45.6733 132.373 45.7867 132.6 45.9C132.713 45.9 132.827 46.0133 132.94 46.0133L133.053 46.1267L133.167 46.24C133.62 46.4667 133.96 46.6933 134.413 47.0333C135.207 47.6 135.887 48.3933 136.453 49.1867C137.02 49.98 137.473 50.8867 137.7 51.7933C137.927 52.7 138.04 53.72 138.04 54.74C138.04 55.76 137.813 56.6667 137.587 57.6867C137.247 58.5933 136.907 59.5 136.34 60.2933L135.887 60.86C135.773 61.0867 135.547 61.2 135.433 61.4267C135.32 61.6533 135.093 61.7667 134.867 61.9933C134.64 62.22 134.527 62.3333 134.3 62.56C132.94 63.92 131.353 65.1667 129.54 66.0733C127.727 66.8667 125.8 67.4333 123.873 67.5467C122.853 67.66 121.947 67.5467 120.927 67.5467C120.473 67.5467 119.907 67.4333 119.453 67.32C119.227 67.32 119 67.2067 118.773 67.2067C118.547 67.2067 118.32 67.0933 118.093 67.0933C116.167 66.64 114.24 66.0733 112.427 65.3933C110.613 64.7133 108.8 63.8067 106.987 63.0133C105.173 62.1067 103.36 61.3133 101.547 60.52C99.7334 59.7267 97.9201 58.82 96.1068 58.0267C94.2935 57.2333 92.4801 56.44 90.5535 55.6467C89.7601 55.3067 89.0801 55.08 88.2868 54.8533C89.7601 52.2467 91.0068 49.5267 91.9134 46.6933C94.7468 38.3067 97.4668 29.8067 100.187 21.3067C100.753 19.4933 101.433 17.68 103.247 16.4333H100.073C100.187 17.2267 100.413 17.9067 100.3 18.7C100.187 19.6067 99.9601 20.5133 99.7335 21.3067C97.1268 29.24 94.5201 37.2867 91.9134 45.22C91.8001 45.4467 91.6868 45.6733 91.5735 46.0133C91.4601 45.7867 91.4601 45.6733 91.3468 45.56C88.6268 37.4 86.0201 29.24 83.3001 21.08C82.7334 19.38 82.7335 17.7933 84.2068 16.32H75.8201C77.2934 17.34 77.8601 18.7 78.4268 20.06C78.6534 20.74 78.8801 21.3067 79.1068 21.9867C81.7135 29.92 84.3201 37.9667 86.9268 45.9C87.1534 46.6933 87.4935 46.92 88.2868 46.92C89.1935 46.8067 90.2134 46.92 91.2334 46.92C91.1201 47.1467 91.1201 47.26 91.1201 47.4867C90.2135 49.98 89.0801 52.36 87.7201 54.6267C86.7001 54.2867 85.7935 53.9467 84.7735 53.72C83.7535 53.38 73.8934 50.32 67.2068 55.8733C67.2068 55.8733 63.8068 58.5933 65.2801 61.7667C66.5268 64.4867 70.4934 65.62 70.4934 65.62C71.5134 66.0733 73.2134 66.4133 75.3668 66.0733C78.9934 65.3933 81.8268 63.3533 84.2068 60.6333C85.5668 59.0467 86.8134 57.3467 87.9468 55.6467C88.7401 55.8733 89.6468 56.2133 90.4401 56.44C92.3668 57.12 94.1801 57.8 95.9934 58.5933C97.8068 59.3867 99.6201 60.18 101.547 60.9733C103.36 61.7667 105.173 62.6733 106.987 63.4667C108.8 64.26 110.613 65.1667 112.54 65.8467C114.467 66.5267 116.393 67.0933 118.32 67.5467C118.547 67.66 118.773 67.66 119.113 67.66C119.34 67.66 119.567 67.7733 119.907 67.7733C120.36 67.8867 120.927 67.8867 121.38 67.8867C122.4 68 123.42 68 124.44 67.8867C126.48 67.7733 128.52 67.32 130.333 66.4133C132.147 65.5067 133.847 64.26 135.207 62.7867C135.433 62.56 135.547 62.4467 135.773 62.22C136 61.9933 136.113 61.88 136.34 61.6533C136.453 61.4267 136.68 61.3133 136.793 61.0867L137.247 60.4067C137.813 59.5 138.267 58.5933 138.493 57.5733C138.833 56.5533 138.947 55.5333 138.947 54.5133C138.607 53.8333 138.493 52.8133 138.267 51.7933ZM85.6801 57.5733C83.9801 60.0667 81.9401 62.3333 79.3334 63.92C76.6134 65.5067 73.7801 66.3 70.7201 65.1667C70.7201 65.1667 66.1868 63.58 65.9601 60.9733C65.7334 58.48 67.3201 57.0067 68.0001 56.3267C68.1134 56.2133 68.2268 56.2133 68.3401 56.1C68.5668 55.9867 68.7934 55.8733 68.9068 55.76C69.3601 55.5333 69.7001 55.3067 70.1534 55.08C70.6068 54.8533 71.0601 54.6267 71.5134 54.5133C71.9668 54.2867 72.4201 54.1733 72.8735 54.06C76.0468 52.5867 84.3201 54.74 84.3201 54.74C85.2268 54.9667 86.1335 55.1933 87.0401 55.5333C86.7001 56.1 86.2468 56.8933 85.6801 57.5733Z" fill="#1F2937"/>
</g>
<defs>
<clipPath id="clip0_419_4720">
<rect width="225.533" height="68" fill="white"/>
</clipPath>
</defs>
</svg>
