<svg width="26" height="24" viewBox="0 0 26 24" fill="none" xmlns="http://www.w3.org/2000/svg">
<path d="M8.33301 8.91667C7.91879 8.91667 7.58301 9.25245 7.58301 9.66667C7.58301 10.0809 7.91879 10.4167 8.33301 10.4167V8.91667ZM17.6663 10.4167C18.0806 10.4167 18.4163 10.0809 18.4163 9.66667C18.4163 9.25245 18.0806 8.91667 17.6663 8.91667V10.4167ZM8.33301 13.5833C7.91879 13.5833 7.58301 13.9191 7.58301 14.3333C7.58301 14.7475 7.91879 15.0833 8.33301 15.0833V13.5833ZM12.9997 15.0833C13.4139 15.0833 13.7497 14.7475 13.7497 14.3333C13.7497 13.9191 13.4139 13.5833 12.9997 13.5833V15.0833ZM11.833 2.25H14.1663V0.75H11.833V2.25ZM2.08301 17.8333V12H0.583008V17.8333H2.08301ZM14.1663 21.75H5.99967V23.25H14.1663V21.75ZM0.583008 17.8333C0.583008 20.8249 3.00813 23.25 5.99967 23.25V21.75C3.83656 21.75 2.08301 19.9964 2.08301 17.8333H0.583008ZM23.9163 12C23.9163 17.3848 19.5511 21.75 14.1663 21.75V23.25C20.3795 23.25 25.4163 18.2132 25.4163 12H23.9163ZM14.1663 2.25C19.5511 2.25 23.9163 6.61522 23.9163 12H25.4163C25.4163 5.7868 20.3795 0.75 14.1663 0.75V2.25ZM11.833 0.75C5.6198 0.75 0.583008 5.7868 0.583008 12H2.08301C2.08301 6.61522 6.44823 2.25 11.833 2.25V0.75ZM8.33301 10.4167H17.6663V8.91667H8.33301V10.4167ZM8.33301 15.0833H12.9997V13.5833H8.33301V15.0833Z" fill="#1F2937"/>
</svg>
