<svg width="29" height="28" viewBox="0 0 29 28" fill="none" xmlns="http://www.w3.org/2000/svg">
<path d="M20.9347 9.53488L20.2048 9.70745L20.9347 9.53488ZM12.0741 4.25H13.3704V2.75H12.0741V4.25ZM3.75 16.625V12.6875H2.25V16.625H3.75ZM2.25 16.625C2.25 18.4801 3.73777 20 5.59259 20V18.5C4.58371 18.5 3.75 17.6693 3.75 16.625H2.25ZM20.3981 11.375C20.3981 15.3188 17.2429 18.5 13.3704 18.5V20C18.0889 20 21.8981 16.1296 21.8981 11.375H20.3981ZM12.0741 2.75C6.63963 2.75 2.25 7.20798 2.25 12.6875H3.75C3.75 8.01879 7.48557 4.25 12.0741 4.25V2.75ZM27.0833 21.875V17.9375H25.5833V21.875H27.0833ZM15.963 25.25H23.7407V23.75H15.963V25.25ZM25.5833 21.875C25.5833 22.9193 24.7496 23.75 23.7407 23.75V25.25C25.5956 25.25 27.0833 23.7301 27.0833 21.875H25.5833ZM20.6274 10.2191C23.5444 11.529 25.5833 14.49 25.5833 17.9375H27.0833C27.0833 13.886 24.6856 10.3972 21.2419 8.85071L20.6274 10.2191ZM13.3704 4.25C16.6786 4.25 19.4632 6.57063 20.2048 9.70745L21.6645 9.36232C20.7693 5.5759 17.4016 2.75 13.3704 2.75V4.25ZM20.2048 9.70745C20.3311 10.2416 20.3981 10.7999 20.3981 11.375H21.8981C21.8981 10.6829 21.8174 10.0088 21.6645 9.36232L20.2048 9.70745ZM7.91966 19.4972C9.08758 22.8428 12.2429 25.25 15.963 25.25V23.75C12.9101 23.75 10.3034 21.7744 9.33585 19.0028L7.91966 19.4972ZM13.3704 18.5H8.62776V20H13.3704V18.5ZM8.62776 18.5H5.59259V20H8.62776V18.5Z" fill="#6B7280"/>
</svg>
