<svg width="26" height="24" viewBox="0 0 26 24" fill="none" xmlns="http://www.w3.org/2000/svg">
<path d="M18.9347 7.53488L18.2048 7.70745L18.9347 7.53488ZM10.0741 2.25H11.3704V0.75H10.0741V2.25ZM1.75 14.625V10.6875H0.25V14.625H1.75ZM0.25 14.625C0.25 16.4801 1.73777 18 3.59259 18V16.5C2.58371 16.5 1.75 15.6693 1.75 14.625H0.25ZM18.3981 9.375C18.3981 13.3188 15.2429 16.5 11.3704 16.5V18C16.0889 18 19.8981 14.1296 19.8981 9.375H18.3981ZM10.0741 0.75C4.63963 0.75 0.25 5.20798 0.25 10.6875H1.75C1.75 6.01879 5.48557 2.25 10.0741 2.25V0.75ZM25.0833 19.875V15.9375H23.5833V19.875H25.0833ZM13.963 23.25H21.7407V21.75H13.963V23.25ZM23.5833 19.875C23.5833 20.9193 22.7496 21.75 21.7407 21.75V23.25C23.5956 23.25 25.0833 21.7301 25.0833 19.875H23.5833ZM18.6274 8.21906C21.5444 9.52903 23.5833 12.49 23.5833 15.9375H25.0833C25.0833 11.886 22.6856 8.39718 19.2419 6.85071L18.6274 8.21906ZM11.3704 2.25C14.6786 2.25 17.4632 4.57063 18.2048 7.70745L19.6645 7.36232C18.7693 3.5759 15.4016 0.75 11.3704 0.75V2.25ZM18.2048 7.70745C18.3311 8.24161 18.3981 8.79986 18.3981 9.375H19.8981C19.8981 8.68287 19.8174 8.00881 19.6645 7.36232L18.2048 7.70745ZM5.91966 17.4972C7.08758 20.8428 10.2429 23.25 13.963 23.25V21.75C10.9101 21.75 8.30338 19.7744 7.33585 17.0028L5.91966 17.4972ZM11.3704 16.5H6.62776V18H11.3704V16.5ZM6.62776 16.5H3.59259V18H6.62776V16.5Z" fill="#6B7280"/>
</svg>
