<svg width="24" height="24" viewBox="0 0 24 24" fill="none" xmlns="http://www.w3.org/2000/svg">
<path d="M12.4668 15.1816C14.1187 15.1816 15.231 13.9448 15.231 12.1768V6.62354C15.231 4.84717 14.1187 3.61865 12.4668 3.61865C10.8066 3.61865 9.69434 4.84717 9.69434 6.62354V12.1768C9.69434 13.9448 10.8066 15.1816 12.4668 15.1816ZM6.52344 12.3096C6.52344 15.5635 8.67334 17.8462 11.8359 18.1118V20.0459H8.75635C8.40771 20.0459 8.12549 20.3281 8.12549 20.6768C8.12549 21.0254 8.40771 21.2993 8.75635 21.2993H16.1689C16.5176 21.2993 16.7998 21.0254 16.7998 20.6768C16.7998 20.3281 16.5176 20.0459 16.1689 20.0459H13.0894V18.1118C16.2603 17.8462 18.4019 15.5635 18.4019 12.3096V10.6245C18.4019 10.2759 18.1279 10.002 17.7793 10.002C17.4307 10.002 17.1484 10.2759 17.1484 10.6245V12.2598C17.1484 15.0903 15.3057 16.9663 12.4668 16.9663C9.61963 16.9663 7.77686 15.0903 7.77686 12.2598V10.6245C7.77686 10.2759 7.50293 10.002 7.146 10.002C6.79736 10.002 6.52344 10.2759 6.52344 10.6245V12.3096Z" fill="#6B7280"/>
</svg>
