<svg width="30" height="29" viewBox="0 0 30 29" fill="none" xmlns="http://www.w3.org/2000/svg">
<path d="M6.21088 13.6644C5.78388 13.6644 5.41339 14.0223 5.41967 14.4556C5.42595 14.8889 5.79016 15.2531 6.21716 15.2531L14.2549 15.2531L14.2549 23.2908C14.2549 23.7178 14.6191 24.0946 15.0524 24.0883C15.4856 24.082 15.8436 23.7241 15.8436 23.2971L15.8498 15.2531L23.8875 15.2531C24.3145 15.2531 24.685 14.8952 24.6788 14.4619C24.6788 14.0223 24.3145 13.6581 23.8813 13.6644L15.8436 13.6644L15.8436 5.62672C15.8498 5.19344 15.4856 4.81667 15.0461 4.82923C14.6128 4.83551 14.2549 5.19344 14.2549 5.62044L14.2549 13.6581L6.21088 13.6644Z" fill="white"/>
</svg>
