<svg width="24" height="24" viewBox="0 0 24 24" fill="none" xmlns="http://www.w3.org/2000/svg">
<path d="M12.7598 22.4516H9.42773" stroke="#1F2937" stroke-width="1.5" stroke-linecap="round" stroke-linejoin="round"/>
<path d="M10.5735 1.18879C8.5951 2.77152 1.98303 9.10245 7.76208 19.1195H14.4262C20.0907 9.10245 13.5724 2.78193 11.6148 1.18879C11.4687 1.0668 11.2845 0.999969 11.0942 0.999969C10.9038 0.999969 10.7196 1.0668 10.5735 1.18879Z" stroke="#1F2937" stroke-width="1.5" stroke-linecap="round" stroke-linejoin="round"/>
<path d="M5.4601 10.7269L2.19051 14.642C2.10814 14.7381 2.05003 14.8526 2.02104 14.9758C1.99205 15.099 1.99303 15.2274 2.02391 15.3501L3.30467 21.15C3.33558 21.2878 3.40104 21.4156 3.4949 21.5212C3.58877 21.6268 3.70795 21.7068 3.84123 21.7536C3.97452 21.8005 4.11754 21.8127 4.25683 21.789C4.39613 21.7654 4.52712 21.7067 4.6375 21.6186L7.76131 19.1195" stroke="#1F2937" stroke-width="1.5" stroke-linecap="round" stroke-linejoin="round"/>
<path d="M16.6645 10.6435L19.9966 14.642C20.079 14.7381 20.1371 14.8526 20.1661 14.9758C20.195 15.099 20.1941 15.2273 20.1632 15.3501L18.8824 21.15C18.8515 21.2878 18.7861 21.4156 18.6922 21.5212C18.5983 21.6268 18.4791 21.7068 18.3459 21.7536C18.2126 21.8005 18.0696 21.8127 17.9303 21.789C17.791 21.7654 17.66 21.7067 17.5496 21.6185L14.4258 19.1195" stroke="#1F2937" stroke-width="1.5" stroke-linecap="round" stroke-linejoin="round"/>
<path d="M11.5938 9.12329C11.5938 9.39917 11.3701 9.62282 11.0943 9.62282C10.8184 9.62282 10.5947 9.39917 10.5947 9.12329C10.5947 8.84741 10.8184 8.62376 11.0943 8.62376C11.3701 8.62376 11.5938 8.84741 11.5938 9.12329Z" fill="#1F2937" stroke="#1F2937" stroke-width="1.5"/>
</svg>
