<svg width="28" height="28" viewBox="0 0 28 28" fill="none" xmlns="http://www.w3.org/2000/svg">
<path fill-rule="evenodd" clip-rule="evenodd" d="M23.6247 13.4166C23.6247 19.0546 19.0542 23.625 13.4163 23.625C7.77843 23.625 3.20801 19.0546 3.20801 13.4166C3.20801 7.77874 7.77843 3.20831 13.4163 3.20831C19.0542 3.20831 23.6247 7.77874 23.6247 13.4166ZM13.4163 25.375C20.0207 25.375 25.3747 20.0211 25.3747 13.4166C25.3747 6.81224 20.0207 1.45831 13.4163 1.45831C6.81194 1.45831 1.45801 6.81224 1.45801 13.4166C1.45801 20.0211 6.81194 25.375 13.4163 25.375ZM23.9517 22.7146C23.61 22.3729 23.056 22.3729 22.7143 22.7146C22.3726 23.0563 22.3726 23.6103 22.7143 23.952L25.0476 26.2853C25.3893 26.627 25.9433 26.627 26.285 26.2853C26.6267 25.9436 26.6267 25.3896 26.285 25.0479L23.9517 22.7146Z" fill="#28303F"/>
</svg>
