<svg width="24" height="24" viewBox="0 0 24 24" fill="none" xmlns="http://www.w3.org/2000/svg">
<path d="M22.2012 16.3407L21.5616 15.949V15.949L22.2012 16.3407ZM21.0876 18.1593L21.7272 18.551H21.7272L21.0876 18.1593ZM1.79877 7.65932L1.15916 7.26766H1.15916L1.79877 7.65932ZM2.91241 5.84067L3.55202 6.23233V6.23233L2.91241 5.84067ZM5.95493 5.07201L6.31352 4.41329L6.31352 4.41329L5.95493 5.07201ZM2.61401 10.528L2.25543 11.1867H2.25543L2.61401 10.528ZM18.0451 18.928L17.6865 19.5867L17.6865 19.5867L18.0451 18.928ZM21.386 13.472L21.0274 14.1307V14.1307L21.386 13.472ZM2.91241 18.1593L2.2728 18.551H2.2728L2.91241 18.1593ZM1.79877 16.3407L2.43838 15.949H2.43838L1.79877 16.3407ZM21.0876 5.84068L21.7272 5.44902L21.7272 5.44902L21.0876 5.84068ZM22.2012 7.65933L21.5616 8.05099V8.051L22.2012 7.65933ZM21.386 10.528L21.7446 11.1867L21.386 10.528ZM18.0451 5.07203L18.4036 5.73075L18.0451 5.07203ZM2.61401 13.472L2.97259 14.1308H2.97259L2.61401 13.472ZM5.95493 18.928L5.59636 18.2693L5.59635 18.2693L5.95493 18.928ZM17.9267 5.13647L17.5681 4.47775V4.47775L17.9267 5.13647ZM6.07333 5.13646L5.71475 5.79519L5.71475 5.79519L6.07333 5.13646ZM17.9267 18.8635L18.2853 18.2048L18.2853 18.2048L17.9267 18.8635ZM6.07333 18.8635L6.43191 19.5223L6.43191 19.5223L6.07333 18.8635ZM10.8864 2.25H13.1136V0.75H10.8864V2.25ZM13.1136 21.75H10.8864V23.25H13.1136V21.75ZM10.8864 21.75C10.0283 21.75 9.40908 21.1046 9.40908 20.4H7.90908C7.90908 22.015 9.28424 23.25 10.8864 23.25V21.75ZM14.5909 20.4C14.5909 21.1046 13.9717 21.75 13.1136 21.75V23.25C14.7158 23.25 16.0909 22.015 16.0909 20.4H14.5909ZM13.1136 2.25C13.9717 2.25 14.5909 2.89538 14.5909 3.6H16.0909C16.0909 1.98502 14.7158 0.75 13.1136 0.75V2.25ZM10.8864 0.75C9.28424 0.75 7.90908 1.98502 7.90908 3.6H9.40908C9.40908 2.89538 10.0283 2.25 10.8864 2.25V0.75ZM21.5616 15.949L20.448 17.7677L21.7272 18.551L22.8408 16.7323L21.5616 15.949ZM2.43838 8.05098L3.55202 6.23233L2.2728 5.449L1.15916 7.26766L2.43838 8.05098ZM3.55202 6.23233C3.94853 5.58481 4.86478 5.3325 5.59635 5.73074L6.31352 4.41329C4.9145 3.65172 3.10639 4.08769 2.2728 5.449L3.55202 6.23233ZM2.9726 9.86925C2.26442 9.48375 2.05912 8.67035 2.43838 8.05098L1.15916 7.26766C0.308336 8.65712 0.833022 10.4124 2.25543 11.1867L2.9726 9.86925ZM20.448 17.7677C20.0515 18.4152 19.1352 18.6675 18.4036 18.2692L17.6865 19.5867C19.0855 20.3483 20.8936 19.9123 21.7272 18.551L20.448 17.7677ZM22.8408 16.7323C23.6917 15.3429 23.167 13.5876 21.7446 12.8133L21.0274 14.1307C21.7356 14.5162 21.9409 15.3296 21.5616 15.949L22.8408 16.7323ZM3.55202 17.7677L2.43838 15.949L1.15916 16.7323L2.2728 18.551L3.55202 17.7677ZM20.448 6.23234L21.5616 8.05099L22.8408 7.26767L21.7272 5.44902L20.448 6.23234ZM21.5616 8.051C21.9409 8.67036 21.7356 9.48376 21.0274 9.86926L21.7446 11.1867C23.167 10.4124 23.6917 8.65713 22.8408 7.26767L21.5616 8.051ZM18.4036 5.73075C19.1352 5.33252 20.0515 5.58482 20.448 6.23234L21.7272 5.44902C20.8936 4.08771 19.0855 3.65174 17.6865 4.4133L18.4036 5.73075ZM2.43838 15.949C2.05911 15.3296 2.26442 14.5163 2.97259 14.1308L2.25543 12.8133C0.83302 13.5876 0.308335 15.3429 1.15916 16.7323L2.43838 15.949ZM2.2728 18.551C3.10639 19.9123 4.9145 20.3483 6.31352 19.5867L5.59635 18.2693C4.86478 18.6675 3.94852 18.4152 3.55202 17.7677L2.2728 18.551ZM18.2853 5.7952L18.4036 5.73075L17.6865 4.4133L17.5681 4.47775L18.2853 5.7952ZM5.59635 5.73074L5.71475 5.79519L6.43192 4.47774L6.31352 4.41329L5.59635 5.73074ZM18.4037 18.2692L18.2853 18.2048L17.5681 19.5223L17.6865 19.5867L18.4037 18.2692ZM5.71475 18.2048L5.59636 18.2693L6.31351 19.5867L6.43191 19.5223L5.71475 18.2048ZM2.25543 11.1867C2.89979 11.5375 2.89979 12.4625 2.25543 12.8133L2.97259 14.1308C4.66073 13.2118 4.66074 10.7882 2.9726 9.86925L2.25543 11.1867ZM6.43191 19.5223C7.09784 19.1598 7.90908 19.6418 7.90908 20.4H9.40908C9.40908 18.5038 7.38021 17.2982 5.71475 18.2048L6.43191 19.5223ZM16.0909 20.4C16.0909 19.6418 16.9022 19.1597 17.5681 19.5223L18.2853 18.2048C16.6198 17.2982 14.5909 18.5038 14.5909 20.4H16.0909ZM21.7446 12.8133C21.1002 12.4625 21.1002 11.5375 21.7446 11.1867L21.0274 9.86926C19.3393 10.7882 19.3393 13.2118 21.0274 14.1307L21.7446 12.8133ZM5.71475 5.79519C7.38021 6.70179 9.40908 5.49623 9.40908 3.6H7.90908C7.90908 4.3582 7.09784 4.84024 6.43192 4.47774L5.71475 5.79519ZM17.5681 4.47775C16.9022 4.84025 16.0909 4.35821 16.0909 3.6H14.5909C14.5909 5.49623 16.6198 6.70181 18.2853 5.7952L17.5681 4.47775ZM14.75 12C14.75 13.5188 13.5188 14.75 12 14.75V16.25C14.3472 16.25 16.25 14.3472 16.25 12H14.75ZM12 14.75C10.4812 14.75 9.25001 13.5188 9.25001 12H7.75001C7.75001 14.3472 9.6528 16.25 12 16.25V14.75ZM9.25001 12C9.25001 10.4812 10.4812 9.25 12 9.25V7.75C9.6528 7.75 7.75001 9.65279 7.75001 12H9.25001ZM12 9.25C13.5188 9.25 14.75 10.4812 14.75 12H16.25C16.25 9.65279 14.3472 7.75 12 7.75V9.25Z" fill="#6B7280"/>
</svg>
