<svg width="24" height="25" viewBox="0 0 24 25" fill="none" xmlns="http://www.w3.org/2000/svg">
<path d="M21 13.567V19.472C21 20.592 20.099 21.5 18.987 21.5H5.013C3.901 21.5 3 20.592 3 19.472V6.528C3 5.408 3.901 4.5 5.013 4.5H12" stroke="#6B7280" stroke-width="1.5" stroke-linecap="round" stroke-linejoin="round"/>
<path d="M7.82812 17.672L11.5591 16.739C11.7351 16.695 11.8951 16.604 12.0241 16.476L20.4141 8.08599C21.1951 7.30499 21.1951 6.03899 20.4141 5.25799L20.2421 5.08599C19.4611 4.30499 18.1951 4.30499 17.4141 5.08599L9.02412 13.476C8.89612 13.604 8.80513 13.765 8.76113 13.941L7.82813 17.672" stroke="#6B7280" stroke-width="1.5" stroke-linecap="round" stroke-linejoin="round"/>
<path d="M15.8301 6.66998L18.8301 9.66998" stroke="#6B7280" stroke-width="1.5" stroke-linecap="round" stroke-linejoin="round"/>
<path d="M11.5458 16.742C11.5598 16.636 11.5778 16.531 11.5778 16.421C11.5778 15.04 10.4588 13.921 9.07784 13.921C8.96784 13.921 8.86284 13.94 8.75684 13.953" stroke="#6B7280" stroke-width="1.5" stroke-linecap="round" stroke-linejoin="round"/>
</svg>
